<svg id="Capa_1" enable-background="new 0 0 512 512" height="24" viewBox="0 0 512 512" width="24" xmlns="http://www.w3.org/2000/svg"><g><g><path d="m215.155 214.043 144.967-124.396 6.378-26.95c-38.733-38.734-92.238-62.697-151.345-62.697-118.212 0-214.043 95.83-214.043 214.043l32.533 17.861z" fill="#dd636e"/></g><g><path d="m215.155 214.043h-214.043c0 35.124 8.46 68.272 23.454 97.517z" fill="#fceed9"/></g><g><path d="m24.566 311.56c35.469 69.182 107.5 116.526 190.589 116.526v-214.043z" fill="#f9c301"/></g><g><path d="m215.155 214.043 151.352-151.351c38.734 38.734 62.692 92.245 62.692 151.351 0 118.213-95.83 214.043-214.043 214.043v-214.043z" fill="#1690fb"/></g><g><path d="m368.427 64.658c21.838 33.549 34.536 73.592 34.536 116.606 0 109.33-81.973 199.504-187.807 212.441v34.381c118.213 0 214.043-95.83 214.043-214.043-.001-58.118-23.174-110.815-60.772-149.385z" fill="#0571f9"/></g><g><path d="m508.25 489.685-19.677 19.677c-3.515 3.515-9.213 3.515-12.728 0l-77.107-77.107 32.405-32.405 77.107 77.107c3.514 3.515 3.514 9.213 0 12.728z" fill="#9d6b6b"/></g><g><path d="m508.253 476.96-77.11-77.11-13.47 13.47 63.009 63.009c3.861 3.861 3.861 10.122 0 13.983l-11.943 11.943 7.11 7.11c3.513 3.513 9.208 3.513 12.721 0l19.684-19.684c3.512-3.513 3.512-9.208-.001-12.721z" fill="#785252"/></g><g><circle cx="362.468" cy="363.58" fill="#d8eafb" r="105.272"/></g><g><path d="m420.216 275.539c-40.845-26.851-96.266-22.319-132.187 13.602-35.538 35.537-40.349 90.158-14.448 130.871 70.214-19.877 125.738-74.694 146.635-144.473z" fill="#b3d8fb"/></g><g><path d="m387.477 261.31c-23.032 57.072-69.95 101.936-128.374 122.205 2.452 12.768 7.272 25.171 14.478 36.497 70.213-19.878 125.738-74.695 146.635-144.474-10.183-6.693-21.272-11.435-32.739-14.228z" fill="#89c6fc"/></g><g><path d="m436.906 289.141c-7.287-7.287-15.379-13.275-23.986-17.979 21.834 39.954 15.846 91.067-17.979 124.891s-84.937 39.813-124.891 17.979c4.704 8.607 10.692 16.699 17.979 23.986 41.111 41.111 107.766 41.111 148.877 0s41.111-107.766 0-148.877z" fill="#b3d8fb"/></g><g><path d="m362.468 476.469c-28.923 0-57.844-11.009-79.863-33.027-44.035-44.036-44.035-115.688 0-159.724 44.038-44.037 115.689-44.035 159.726 0 44.035 44.036 44.035 115.688 0 159.724-22.019 22.018-50.942 33.027-79.863 33.027zm0-210.445c-24.994 0-49.987 9.514-69.015 28.541-38.055 38.055-38.055 99.975 0 138.03 38.053 38.054 99.975 38.054 138.03 0 38.055-38.055 38.055-99.975 0-138.03-19.028-19.028-44.022-28.541-69.015-28.541z" fill="#785252"/></g><g><path d="m188.92 395.307c-60.115 0-114.431-24.793-153.311-64.698 38.173 58.677 104.328 97.477 179.546 97.477v-34.381c-8.599 1.051-17.352 1.602-26.235 1.602z" fill="#d4a806"/></g></g></svg>