<svg id="color" enable-background="new 0 0 24 24" height="512" viewBox="0 0 24 24" width="512" xmlns="http://www.w3.org/2000/svg"><g><g><path d="m.856 20.081c-.076 0-.119-.001-.127-.001-.414-.012-.74-.357-.729-.77.011-.415.358-.75.77-.729.042 0 4.207.091 8.768-1.612 6.033-2.252 9.888-6.424 11.456-12.399.105-.4.515-.639.916-.535.4.105.64.515.535.916-3.87 14.748-19.986 15.13-21.589 15.13z" fill="#4caf50"/></g></g><g><g><path d="m23.25 8.098c-.064 0-.13-.008-.194-.025l-4.098-1.098c-.293-.079-.51-.326-.549-.627-.04-.3.106-.596.369-.747l2.598-1.5c.358-.207.817-.085 1.024.274l1.5 2.598c.152.263.13.591-.054.832-.145.188-.367.293-.596.293z" fill="#4caf50"/></g></g><g><g><path d="m9.595 14.253c-.199 0-.391-.079-.532-.221l-2.313-2.324c-.145-.145-.223-.343-.218-.548s.094-.398.246-.536l3.724-3.375c.222-.201.54-.25.813-.127.272.124.445.397.44.696-.036 2.051-.19 4.386-1.571 6.147-.132.169-.332.273-.546.286-.013.001-.029.002-.043.002z" fill="#2196f3"/></g></g><g><g><path d="m3.787 8.433c-.198 0-.388-.078-.529-.218l-2.324-2.312c-.152-.152-.232-.362-.219-.576s.117-.414.286-.546c1.762-1.381 4.097-1.535 6.147-1.571.303.025.573.168.696.44.124.272.073.592-.127.813l-3.374 3.724c-.138.152-.332.241-.537.246z" fill="#2196f3"/></g></g><g><g><path d="m.75 15.25c-.196 0-.388-.077-.53-.22-.195-.194-.267-.481-.188-.745.269-.899.961-3.058 1.573-3.669.834-.835 2.193-.835 3.029-.001.835.836.835 2.195 0 3.03-.612.611-2.77 1.304-3.669 1.573z" fill="#ff9800"/></g></g><g><g><path d="m2.784 7.744 3.315-3.675c2.089-2.414 5.286-4.015 8.136-4.068.201-.01.4.076.544.22s.224.341.22.544c-.054 2.85-1.655 6.047-4.08 8.146l-3.663 3.307z" fill="#eceff1"/></g></g><g><g><path d="m6.92 3.214c-1.993.045-4.222.237-5.919 1.567-.169.132-.273.331-.286.546-.013.214.067.424.219.576l1.893 1.885-.043-.044 3.315-3.675c.258-.298.533-.583.821-.855z" fill="#1d83d4"/></g></g><g><g><path d="m3.119 9.99c-.549 0-1.097.209-1.514.626-.612.611-1.304 2.77-1.573 3.669-.071.235-.021.489.129.679l4.41-4.41c-.41-.376-.931-.564-1.452-.564z" fill="#de8400"/></g></g><g><g><path d="m14.268 0c-.011 0-.022 0-.032.001-2.499.047-5.264 1.283-7.316 3.213-.288.272-.563.557-.821.855l-3.315 3.675.043.043 2.255 2.255 9.756-9.756c-.018-.023-.038-.045-.059-.066-.136-.136-.321-.22-.511-.22z" fill="#cdd0d2"/></g></g><g><g><path d="m3.75 24c-.552 0-1-.447-1-1v-.5c0-.553.448-1 1-1s1 .447 1 1v.5c0 .553-.448 1-1 1z" fill="#90caf9"/></g></g><g><g><path d="m3.75 21.5c-.552 0-1 .447-1 1v.5c0 .553.448 1 1 1z" fill="#7db0d9"/></g></g><g><g><path d="m21.75 24c-.552 0-1-.447-1-1v-12c0-.552.448-1 1-1s1 .448 1 1v12c0 .553-.448 1-1 1z" fill="#2196f3"/></g></g><g><g><path d="m15.75 24c-.552 0-1-.447-1-1v-5c0-.553.448-1 1-1s1 .447 1 1v5c0 .553-.448 1-1 1z" fill="#42a5f5"/></g></g><g><g><path d="m9.75 24c-.552 0-1-.447-1-1v-2c0-.553.448-1 1-1s1 .447 1 1v2c0 .553-.448 1-1 1z" fill="#64b5f6"/></g></g><g><g><path d="m9.75 20c-.552 0-1 .447-1 1v2c0 .553.448 1 1 1z" fill="#579ed6"/></g></g><g><g><path d="m15.75 17c-.552 0-1 .447-1 1v5c0 .553.448 1 1 1z" fill="#3990d5"/></g></g><g><g><path d="m21.75 10c-.552 0-1 .448-1 1v12c0 .553.448 1 1 1z" fill="#1d83d4"/></g></g><g><g><path d="m12 15.882c-.775.402-1.596.764-2.461 1.087-4.118 1.537-7.91 1.612-8.642 1.612-.079 0-.122-.001-.126-.001-.012-.001-.025-.001-.037-.001-.407 0-.722.327-.733.73-.011.413.314.759.729.77l.127.001c.869 0 6.006-.112 11.144-2.567v-1.631z" fill="#429846"/></g></g></svg>