<svg height="464pt" viewBox="-32 0 464 464" width="464pt" xmlns="http://www.w3.org/2000/svg"><path d="m111.84375 358.398438-15.679688 3.136718 5.136719 25.703125c-54.296875-34.511719-86.625-94.878906-85.253906-159.203125 1.371094-64.320312 36.238281-123.257812 91.957031-155.425781l5.496094-3.203125-8-13.847656-5.503906 3.203125c-59.492188 34.332031-97.191406 96.800781-99.847656 165.433593-2.652344 68.636719 30.113281 133.828126 86.773437 172.652344l-16.519531 3.3125 3.136718 15.679688 40-8c2.089844-.410156 3.933594-1.636719 5.117188-3.40625 1.183594-1.773438 1.609375-3.945313 1.1875-6.035156zm0 0" fill="#31b2ad"/><path d="m136.003906 0h128v80h-128zm0 0" fill="#8dc79d"/><path d="m220.003906 40c0 11.046875-8.957031 20-20 20-11.046875 0-20-8.953125-20-20s8.953125-20 20-20c11.042969 0 20 8.953125 20 20zm0 0" fill="#aae5c8"/><path d="m136.003906 32h-32v80h128v-32h-96zm0 0" fill="#6b9777"/><path d="m152.003906 376h96v88h-96zm0 0" fill="#fbb540"/><path d="m184.003906 376h32v40h-32zm0 0" fill="#da922a"/><path d="m288.003906 248c0 48.601562-39.398437 88-88 88-48.601562 0-88-39.398438-88-88s39.398438-88 88-88c48.601563 0 88 39.398438 88 88zm0 0" fill="#41dfd0"/><path d="m273.90625 417.910156-5.902344-14.855468c4.800782-1.917969 9.527344-4 14.070313-6.292969l7.136719 14.308593c-4.960938 2.457032-10.089844 4.761719-15.304688 6.839844zm36.976562-19.429687-8.871093-13.3125c4.253906-2.839844 8.4375-5.894531 12.445312-9.078125l9.96875 12.511718c-4.359375 3.46875-8.917969 6.796876-13.542969 9.878907zm32.160157-26.6875-11.441407-11.199219c3.570313-3.648438 7.035157-7.496094 10.304688-11.457031l12.328125 10.183593c-3.542969 4.3125-7.320313 8.503907-11.191406 12.472657zm25.953125-32.800781-13.496094-8.578126c2.710938-4.277343 5.304688-8.796874 7.695312-13.351562l14.175782 7.417969c-2.59375 5-5.417969 9.917969-8.375 14.535156zm18.574218-37.464844-15-5.527344c1.792969-4.800781 3.382813-9.753906 4.746094-14.648438l15.421875 4.265626c-1.480469 5.335937-3.222656 10.695312-5.167969 15.933593zm10.328126-40.503906-15.824219-2.296876c.738281-5.078124 1.265625-10.246093 1.601562-15.328124l16 .96875c-.394531 5.5625-.96875 11.160156-1.777343 16.679687zm-14.261719-40.742188c-.320313-5.089844-.859375-10.242188-1.601563-15.328125l15.824219-2.328125c.800781 5.519531 1.398437 11.136719 1.742187 16.65625zm-6.402344-37.914062c-1.351563-4.863282-2.953125-9.78125-4.75-14.640626l15-5.597656c1.957031 5.285156 3.695313 10.648438 5.175781 15.941406zm-14.144531-35.710938c-2.398438-4.550781-5-9.039062-7.734375-13.335938l13.496093-8.59375c2.976563 4.671876 5.800782 9.546876 8.390626 14.488282zm-21.328125-32c-3.253907-3.921875-6.71875-7.777344-10.320313-11.449219l11.425782-11.199219c3.917968 4 7.6875 8.175782 11.199218 12.449219zm0 0" fill="#41dfd0"/><path d="m236.867188 208h41.457031c-2.878907-5.695312-6.363281-11.058594-10.402344-16h-33.949219c-2.097656-9.464844-4.699218-18.8125-7.792968-28-5.902344-1.820312-11.984376-3.011719-18.136719-3.550781l.945312 2.328125c3.464844 9.554687 6.339844 19.316406 8.613281 29.222656h-34.664062c2.320312-10.136719 5.257812-20.121094 8.800781-29.894531l.464844-1.714844c-6.042969.523437-12.019531 1.671875-17.824219 3.433594-3.140625 9.238281-5.769531 18.644531-7.871094 28.175781h-34.402343c-4.035157 4.941406-7.523438 10.304688-10.398438 16h41.929688c-1.621094 10.597656-2.597657 21.285156-2.921875 32h-48.3125c-.230469 2.640625-.398438 5.296875-.398438 8s.167969 5.359375.398438 8h48.28125c.320312 10.714844 1.289062 21.402344 2.902344 32h-41.902344c2.875 5.695312 6.363281 11.058594 10.398437 16h34.402344c2.097656 9.53125 4.722656 18.9375 7.863281 28.175781 5.835938 1.765625 11.84375 2.914063 17.917969 3.433594l-.75-2.34375c-3.464844-9.570313-6.335937-19.34375-8.601563-29.265625h34.6875c-2.21875 9.742188-5.039062 19.339844-8.4375 28.734375l-1.28125 2.867187c6.203126-.539062 12.328126-1.730468 18.28125-3.5625 3.117188-9.195312 5.730469-18.558593 7.832032-28.039062h33.886718c4.035157-4.941406 7.523438-10.304688 10.398438-16h-41.390625c1.613281-10.597656 2.578125-21.285156 2.894531-32h47.816406c.234376-2.640625.402344-5.296875.402344-8s-.167968-5.359375-.402344-8h-47.816406c-.328125-10.714844-1.304687-21.402344-2.917968-32zm-57.03125 0h40.878906c1.71875 10.589844 2.757812 21.277344 3.113281 32h-47.097656c.347656-10.722656 1.386719-21.410156 3.105469-32zm40.96875 80h-41.011719c-1.710938-10.589844-2.742188-21.277344-3.078125-32h47.121094c-.324219 10.722656-1.335938 21.410156-3.03125 32zm0 0" fill="#31b2ad"/><path d="m303.003906 113.351562-6.882812-40.199218c-.746094-4.355469 2.175781-8.492188 6.53125-9.242188l40.199218-6.886718 2.703126 15.769531-32.320313 5.535156 5.535156 32.320313zm0 0" fill="#41dfd0"/></svg>